<svg width="44" height="44" viewBox="0 0 44 44" fill="none" xmlns="http://www.w3.org/2000/svg">
<path d="M22.329 43.3417C34.2975 43.3417 43.9999 33.6393 43.9999 21.6708C43.9999 9.70236 34.2975 0 22.329 0C10.3606 0 0.658203 9.70236 0.658203 21.6708C0.658203 33.6393 10.3606 43.3417 22.329 43.3417Z" fill="#FAFAFA"/>
<path d="M26.7607 22.6582C25.8921 22.6582 25.1875 23.6258 25.1875 24.82C25.1875 26.0142 25.8921 26.9823 26.7607 26.9823C27.6287 26.9823 28.3327 26.0142 28.3327 24.82C28.3327 23.6258 27.6287 22.6582 26.7607 22.6582Z" fill="#4AA956"/>
<path d="M19.0691 22.6582C18.2011 22.6582 17.4971 23.6258 17.4971 24.82C17.4971 26.0142 18.2011 26.9823 19.0691 26.9823C19.9383 26.9823 20.6423 26.0142 20.6423 24.82C20.6417 23.6258 19.9377 22.6582 19.0691 22.6582Z" fill="#4AA956"/>
<path fill-rule="evenodd" clip-rule="evenodd" d="M31.4689 11.7139C32.4236 14.1 32.4148 16.5933 32.2356 17.032C33.3578 18.2421 34.0436 19.6958 34.0436 21.6819C34.0436 30.3156 26.8325 30.4539 25.0116 30.4539C24.6385 30.4539 23.9294 30.4548 23.1545 30.4559L22.9154 30.4562L22.6741 30.4559C21.9001 30.4548 21.1924 30.4539 20.8192 30.4539C18.9982 30.4539 11.7871 30.3156 11.7871 21.6819C11.7871 19.6958 12.473 18.2421 13.5952 17.032C13.4159 16.5933 13.4072 14.1 14.3624 11.7139C14.3624 11.7139 16.5529 11.9522 19.8674 14.2119C20.5632 14.0209 21.7393 13.926 22.9154 13.926C24.0915 13.926 25.2681 14.0215 25.9628 14.2119C29.2778 11.9522 31.4689 11.7139 31.4689 11.7139ZM14.7666 24.4475C14.7666 28.8514 18.3194 29.3926 22.8815 29.3926H22.9494C27.512 29.3926 31.0648 28.8514 31.0648 24.4475C31.0648 23.3933 30.69 22.4134 29.7997 21.601C28.7164 20.613 27.0856 20.7275 25.1752 20.8617C24.4673 20.9114 23.721 20.9638 22.95 20.9638C22.9389 20.9638 22.9277 20.9638 22.9154 20.9632C22.9043 20.9638 22.8926 20.9638 22.8815 20.9638C22.1104 20.9638 21.3642 20.9114 20.6563 20.8617C18.7461 20.7275 17.1153 20.613 16.0311 21.601C15.1409 22.4134 14.7666 23.3933 14.7666 24.4475Z" fill="#4AA956"/>
</svg>
