<svg width="45" height="44" viewBox="0 0 45 44" fill="none" xmlns="http://www.w3.org/2000/svg">
<path d="M22.3681 43.3417C34.3366 43.3417 44.0389 33.6393 44.0389 21.6708C44.0389 9.70236 34.3366 0 22.3681 0C10.3996 0 0.697266 9.70236 0.697266 21.6708C0.697266 33.6393 10.3996 43.3417 22.3681 43.3417Z" fill="#FAFAFA"/>
<path fill-rule="evenodd" clip-rule="evenodd" d="M15.9922 28.1134H29.9166C30.9223 28.1134 31.7399 27.2934 31.7399 26.2866V15.8852C31.7399 14.8766 30.9223 14.0566 29.9166 14.0566H15.9922C14.9866 14.0566 14.1689 14.8766 14.1689 15.8852V26.2848C14.1689 27.2934 14.9866 28.1134 15.9922 28.1134ZM21.588 21.8508C21.9002 22.122 22.2826 22.2564 22.6645 22.2564C23.0463 22.2564 23.4281 22.122 23.7392 21.8525L30.3933 16.1172C30.601 15.939 30.6277 15.621 30.4536 15.4084C30.2795 15.1958 29.9691 15.1662 29.7608 15.3462L23.1032 21.0821C22.8473 21.3036 22.4759 21.3036 22.22 21.0821L15.5624 15.3462C15.3546 15.1679 15.0436 15.1958 14.8695 15.4084C14.6954 15.621 14.7221 15.939 14.9299 16.1172L21.588 21.8508Z" fill="#4AA956"/>
</svg>
