<svg width="44" height="44" viewBox="0 0 44 44" fill="none" xmlns="http://www.w3.org/2000/svg">
<path d="M22.0263 43.3417C33.9948 43.3417 43.6971 33.6393 43.6971 21.6708C43.6971 9.70236 33.9948 0 22.0263 0C10.0578 0 0.355469 9.70236 0.355469 21.6708C0.355469 33.6393 10.0578 43.3417 22.0263 43.3417Z" fill="#FAFAFA"/>
<path fill-rule="evenodd" clip-rule="evenodd" d="M15.1077 22.7074L10.6538 21.0295C10.2014 20.8586 10.1978 20.214 10.6485 20.0384L28.9264 12.9216C29.314 12.7706 29.714 13.113 29.629 13.5237L26.3491 29.4484C26.2718 29.8247 25.8353 29.995 25.5268 29.7687L21.0493 26.4877C20.7774 26.2888 20.4069 26.2993 20.1467 26.5134L17.6638 28.5558C17.3759 28.7938 16.9417 28.6614 16.8314 28.3026L15.1077 22.7074ZM25.2575 16.4039L16.5534 21.8142C16.2195 22.0225 16.0625 22.4291 16.1705 22.8095L17.1114 26.147C17.1781 26.3833 17.5185 26.3594 17.5509 26.1149L17.7957 24.2848C17.8417 23.9401 18.0045 23.6227 18.257 23.3853L25.4404 16.646C25.5749 16.52 25.4139 16.3064 25.2575 16.4039Z" fill="#4AA956"/>
</svg>
