<svg width="44" height="44" viewBox="0 0 44 44" fill="none" xmlns="http://www.w3.org/2000/svg">
<path d="M21.6708 43.3417C33.6393 43.3417 43.3417 33.6393 43.3417 21.6708C43.3417 9.70236 33.6393 0 21.6708 0C9.70236 0 0 9.70236 0 21.6708C0 33.6393 9.70236 43.3417 21.6708 43.3417Z" fill="#FAFAFA"/>
<path d="M33.1025 13.8745C32.3045 14.2277 31.449 14.4666 30.5495 14.5738C31.4678 14.025 32.1707 13.1541 32.504 12.1203C31.6426 12.6287 30.6921 12.9977 29.6787 13.1974C28.8678 12.3341 27.7142 11.7959 26.4345 11.7959C23.9795 11.7959 21.9886 13.7831 21.9886 16.2319C21.9886 16.5798 22.028 16.919 22.1036 17.2434C18.4094 17.0584 15.1341 15.2913 12.9414 12.6071C12.5582 13.2613 12.3405 14.0233 12.3405 14.8374C12.3405 16.3766 13.1256 17.7354 14.3173 18.5302C13.5886 18.5056 12.9038 18.3059 12.3036 17.9732V18.0289C12.3036 20.1778 13.8368 21.9718 15.8693 22.38C15.4967 22.4796 15.1042 22.5352 14.6981 22.5352C14.4106 22.5352 14.1331 22.5071 13.8608 22.4526C14.4271 24.2168 16.0682 25.4994 18.0127 25.5346C16.4919 26.7241 14.5749 27.4311 12.4919 27.4311C12.1328 27.4311 11.7796 27.4094 11.4316 27.3702C13.399 28.6318 15.7349 29.3668 18.2457 29.3668C26.4234 29.3668 30.8939 22.6055 30.8939 16.7421L30.8786 16.1675C31.7523 15.5455 32.5081 14.7642 33.1025 13.8745Z" fill="#4AA956"/>
</svg>
